<?xml version="1.0" standalone="no"?>
<!DOCTYPE svg PUBLIC "-//W3C//DTD SVG 20010904//EN"
 "http://www.w3.org/TR/2001/REC-SVG-20010904/DTD/svg10.dtd">
<svg version="1.0" xmlns="http://www.w3.org/2000/svg"
 width="646.000000pt" height="646.000000pt" viewBox="0 0 646.000000 646.000000"
 preserveAspectRatio="xMidYMid meet">
<metadata>
Created by potrace 1.14, written by Peter Selinger 2001-2017
</metadata>
<g transform="translate(0.000000,646.000000) scale(0.100000,-0.100000)"
fill="#000000" stroke="none">
<path d="M0 3230 l0 -3230 3230 0 3230 0 0 3230 0 3230 -3230 0 -3230 0 0
-3230z m2845 2465 c262 -156 523 -359 765 -592 90 -87 120 -121 120 -140 0
-18 -23 -49 -77 -105 -97 -100 -127 -122 -156 -114 -12 3 -56 44 -97 92 -192
221 -515 485 -812 665 -73 44 -134 84 -136 88 -4 11 97 120 152 163 39 31 55
38 75 33 14 -4 89 -44 166 -90z m-900 -1203 c72 -35 177 -105 223 -146 63 -58
64 -91 1 -163 -15 -18 -37 -54 -49 -80 -50 -113 -226 -780 -295 -1118 -35
-175 -85 -471 -85 -509 0 -12 33 13 106 83 536 512 1267 845 1904 868 729 26
1269 -310 1391 -868 22 -102 27 -335 9 -444 -36 -221 -114 -406 -242 -572 -57
-75 -210 -218 -304 -284 -196 -140 -488 -269 -798 -354 -304 -82 -782 -145
-1105 -145 -117 0 -129 7 -186 104 -21 36 -66 95 -101 131 l-64 65 113 0 c219
1 538 22 766 51 651 83 1146 308 1391 631 114 150 179 314 199 498 58 558
-332 902 -1029 904 -233 1 -398 -29 -662 -120 -414 -142 -883 -439 -1208 -764
-64 -63 -140 -148 -169 -187 -42 -57 -59 -73 -79 -73 -29 0 -167 72 -217 113
-42 34 -43 44 -16 242 63 460 163 987 301 1590 65 281 90 406 105 533 8 60 9
60 100 14z"/>
</g>
</svg>
